<svg width="21" height="21" viewBox="0 0 21 21" fill="none" xmlns="http://www.w3.org/2000/svg">
<path d="M19.731 19.3076L16.021 15.6276C17.4611 13.832 18.1585 11.5529 17.9698 9.2589C17.7811 6.96491 16.7207 4.83039 15.0065 3.29425C13.2924 1.75811 11.0548 0.937115 8.75395 1.00008C6.45306 1.06304 4.26374 2.00517 2.63616 3.63275C1.00858 5.26033 0.0664534 7.44964 0.00349303 9.75053C-0.0594674 12.0514 0.761529 14.289 2.29767 16.0031C3.83381 17.7173 5.96832 18.7777 8.26232 18.9664C10.5563 19.1551 12.8354 18.4577 14.631 17.0176L18.311 20.6976C18.404 20.7913 18.5146 20.8657 18.6364 20.9165C18.7583 20.9673 18.889 20.9934 19.021 20.9934C19.153 20.9934 19.2837 20.9673 19.4056 20.9165C19.5275 20.8657 19.6381 20.7913 19.731 20.6976C19.9113 20.5111 20.012 20.2619 20.012 20.0026C20.012 19.7433 19.9113 19.4941 19.731 19.3076ZM9.02102 17.0176C7.63655 17.0176 6.28317 16.6071 5.13203 15.8379C3.98089 15.0687 3.08368 13.9755 2.55387 12.6964C2.02405 11.4173 1.88543 10.0098 2.15553 8.65197C2.42562 7.29411 3.09231 6.04682 4.07128 5.06786C5.05024 4.08889 6.29752 3.4222 7.65539 3.15211C9.01326 2.88201 10.4207 3.02063 11.6998 3.55045C12.9789 4.08026 14.0721 4.97747 14.8413 6.12861C15.6105 7.27976 16.021 8.63314 16.021 10.0176C16.021 11.8741 15.2835 13.6546 13.9708 14.9674C12.658 16.2801 10.8775 17.0176 9.02102 17.0176Z" fill="#FFC700"/>
</svg>
